<?xml version="1.0" encoding="utf-8"?>
<!-- Generator: Adobe Illustrator 18.0.0, SVG Export Plug-In . SVG Version: 6.00 Build 0)  -->
<!DOCTYPE svg PUBLIC "-//W3C//DTD SVG 1.1//EN" "http://www.w3.org/Graphics/SVG/1.1/DTD/svg11.dtd">
<svg version="1.1" id="Calque_1" xmlns="http://www.w3.org/2000/svg" xmlns:xlink="http://www.w3.org/1999/xlink" x="0px" y="0px"
	 viewBox="0 0 369.8 304.4" enable-background="new 0 0 369.8 304.4" xml:space="preserve">
<line fill="none" stroke="#D8D8D7" stroke-miterlimit="3" stroke-dasharray="5" x1="204.5" y1="29" x2="340" y2="152.5"/>
<line fill="none" stroke="#D8D8D7" stroke-miterlimit="3" stroke-dasharray="5" x1="64" y1="266.5" x2="23.3" y2="74.4"/>
<g>
	<g>
		<line fill="none" stroke="#D8D8D7" stroke-miterlimit="3" x1="26" y1="73.7" x2="27.8" y2="75.4"/>
		
			<line fill="none" stroke="#D8D8D7" stroke-miterlimit="3" stroke-dasharray="4.9516,4.9516" x1="31.4" y1="78.8" x2="246.4" y2="280.3"/>
		<line fill="none" stroke="#D8D8D7" stroke-miterlimit="3" x1="248.2" y1="282" x2="250" y2="283.7"/>
	</g>
</g>
<line fill="none" stroke="#D8D8D7" stroke-miterlimit="3" stroke-dasharray="5" x1="204.5" y1="29" x2="64" y2="266.5"/>
<line fill="none" stroke="#D8D8D7" stroke-miterlimit="3" stroke-dasharray="5" x1="26" y1="73.7" x2="336.8" y2="153.7"/>
<line fill="none" stroke="#D8D8D7" stroke-miterlimit="3" stroke-dasharray="5" x1="250" y1="283.7" x2="340" y2="152.5"/>
<line fill="none" stroke="#D8D8D7" stroke-miterlimit="3" stroke-dasharray="5" x1="340" y1="152.5" x2="64" y2="266.5"/>
<line fill="none" stroke="#D8D8D7" stroke-miterlimit="3" stroke-dasharray="5" x1="204.5" y1="29" x2="25.8" y2="71.9"/>
<line fill="none" stroke="#D8D8D7" stroke-miterlimit="3" stroke-dasharray="5" x1="251" y1="282" x2="67" y2="265"/>
<g>
	<g>
		<g>
			<path fill="#242F39" d="M266.6,93c-1.2-1.2-2.8-1.8-4.4-1.8H88c-1.6,0-3.2,0.6-4.4,1.8c-1.2,1.2-1.8,2.8-1.8,4.4V205h186.6V97.3
				C268.4,95.8,267.8,94.2,266.6,93z"/>
			<g>
				<circle fill="#474F5A" cx="175.1" cy="95.9" r="2.6"/>
				<path fill="#FFFFFF" d="M176.1,95.9c0,0.6-0.5,1-1,1c-0.6,0-1-0.5-1-1c0-0.6,0.5-1,1-1C175.7,94.9,176.1,95.4,176.1,95.9z"/>
			</g>
			<rect x="91.5" y="100.7" fill="#363F49" width="167.2" height="104.4"/>
			<g>
				<circle fill="#666B74" cx="175.1" cy="152.9" r="13.9"/>
				<path fill="#FFFFFF" d="M184.3,152.9c0,5.1-4.1,9.2-9.2,9.2c-5.1,0-9.2-4.1-9.2-9.2c0-5.1,4.1-9.2,9.2-9.2
					C180.2,143.7,184.3,147.8,184.3,152.9z"/>
				<path fill="#363F49" d="M183.1,152.9c0,4.4-3.6,8-8,8c-4.4,0-8-3.6-8-8c0-4.4,3.6-8,8-8C179.5,144.9,183.1,148.5,183.1,152.9z"
					/>
				<polygon fill="#FFFFFF" points="173.3,149.6 178.9,152.9 173.3,156.1 				"/>
			</g>
		</g>
		<g>
			<rect x="62" y="205" fill="#F2F2F2" width="226.2" height="2.8"/>
			<path fill="#CCCBCA" d="M62,207.9c8.2,3.6,17.2,5.6,26.7,5.6h172.8c9.5,0,18.5-2,26.7-5.6H62z"/>
			<rect x="155.5" y="205" fill="#242F39" width="39.3" height="1.4"/>
		</g>
	</g>
	<g>
		<g id="BG_-_circle_86_">
			<g>
				<circle fill="#D2524B" cx="339.3" cy="152.5" r="29.2"/>
			</g>
		</g>
		<g id="Bubble">
			<g>
				<path fill="#FFFFFF" d="M339.2,135.5c-9.4,0-17,7.6-17,17c0,5.8,2.9,11,7.4,14l-1,6.6l6.2-4.2c1.4,0.4,2.9,0.6,4.5,0.6
					c9.4,0,17-7.6,17-17C356.3,143.1,348.7,135.5,339.2,135.5z"/>
			</g>
		</g>
		<g id="Dots_1_">
			<g>
				<path fill="#878890" d="M332,151.3c-1.3,0-2.4,1.1-2.4,2.4c0,1.3,1.1,2.4,2.4,2.4c1.3,0,2.4-1.1,2.4-2.4
					C334.4,152.3,333.3,151.3,332,151.3z M339.3,151.3c-1.3,0-2.4,1.1-2.4,2.4c0,1.3,1.1,2.4,2.4,2.4c1.3,0,2.4-1.1,2.4-2.4
					C341.7,152.3,340.6,151.3,339.3,151.3z M346.6,151.3c-1.3,0-2.4,1.1-2.4,2.4c0,1.3,1.1,2.4,2.4,2.4c1.3,0,2.4-1.1,2.4-2.4
					C349,152.3,347.9,151.3,346.6,151.3z"/>
			</g>
		</g>
	</g>
	<g>
		<g id="BG_-_circle_55_">
			<g>
				<circle fill="#D2524B" cx="65.1" cy="263.6" r="22.3"/>
			</g>
		</g>
		<g id="Base_3_">
			<g>
				<path fill="#363636" d="M77.3,256.5l-0.4-3.7l-24,2.9l0.5,3.7L77.3,256.5z M53,275.7h24.2v-15.8H53V275.7z"/>
			</g>
		</g>
		<g id="Checks">
			<g>
				<path fill="#D3D3D3" d="M76.3,255.7l-1.1-1.7l-3.7,0.5l1.1,1.7L76.3,255.7z M65.9,255.1l1.1,1.7l3.7-0.4l-1.1-1.7L65.9,255.1z
					 M60.4,255.8l1.1,1.7l3.7-0.4l-1.1-1.7L60.4,255.8z M54.8,256.4l1.1,1.7l3.7-0.4l-1.1-1.7L54.8,256.4z M54.8,262.6h3.7l0.9-1.9
					h-3.7L54.8,262.6z M60.4,262.6h3.7l0.9-1.9h-3.7L60.4,262.6z M66,262.6h3.7l0.9-1.9h-3.7L66,262.6z M71.6,262.6h3.7l0.9-1.9
					h-3.7L71.6,262.6z"/>
			</g>
		</g>
		<g id="Info">
			<g>
				<path fill="#D0D0D0" d="M66,266.4h-6.5v0.9H66V266.4z M59.5,268.2v0.9h11.2v-0.9H59.5z M59.5,271h10.2v-0.9H59.5V271z"/>
			</g>
		</g>
	</g>
	<g>
		<g id="BG_-_circle_68_">
			<g>
				<circle fill-rule="evenodd" clip-rule="evenodd" fill="#D2524B" cx="204.4" cy="29.1" r="27.6"/>
			</g>
		</g>
		<g id="Base_13_">
			<g>
				<path fill-rule="evenodd" clip-rule="evenodd" fill="#363636" d="M218.3,39.5h-2.4l0,0h-22.8l0,0h-2.6c-0.6,0-1.1,0.5-1.1,1v1.4
					c0,0.6,0.5,1,1.1,1h27.7c0.6,0,1.1-0.5,1.1-1v-1.4C219.4,39.9,218.9,39.5,218.3,39.5z"/>
			</g>
		</g>
		<g id="Body_11_">
			<g>
				<path fill-rule="evenodd" clip-rule="evenodd" fill="#4A4A4A" d="M206.1,15c0,0-0.2-1-1.5-1s-1.6,1-1.6,1l-10,24.4h23L206.1,15z
					"/>
			</g>
		</g>
		<g>
			<defs>
				<path id="SVGID_1_" d="M206.1,15c0,0-0.2-1-1.5-1s-1.6,1-1.6,1l-10,24.4h23L206.1,15z"/>
			</defs>
			<clipPath id="SVGID_2_">
				<use xlink:href="#SVGID_1_"  overflow="visible"/>
			</clipPath>
			<g id="Reflective_band" clip-path="url(#SVGID_2_)">
				<g>
					<polygon fill-rule="evenodd" clip-rule="evenodd" fill="#FFFFFF" points="210.2,24.5 198.7,24.5 195.2,32.6 213.6,32.6 					
						"/>
				</g>
			</g>
		</g>
	</g>
	<g>
		<g id="BG_-_circle_4_">
			<g>
				<circle fill="#D2524B" cx="25.8" cy="72.6" r="24.2"/>
			</g>
		</g>
		<g id="White">
			<g>
				<path fill="#F5F5F5" d="M25.8,64.3c-7.6,0-15.1,10.1-15.1,10.1s7.6,10.1,15.1,10.1c7.5,0,15.1-10.1,15.1-10.1
					S33.4,64.3,25.8,64.3z"/>
			</g>
		</g>
		<g id="Color" opacity="0.8">
			<g>
				<path fill="#D2524B" d="M25.8,69.3c-2.8,0-5,2.3-5,5c0,2.8,2.3,5,5,5c2.8,0,5-2.3,5-5C30.8,71.6,28.6,69.3,25.8,69.3z
					 M25.8,76.9c-1.4,0-2.5-1.1-2.5-2.5c0-1.4,1.1-2.5,2.5-2.5c1.4,0,2.5,1.1,2.5,2.5C28.3,75.8,27.2,76.9,25.8,76.9z"/>
			</g>
		</g>
		<g id="Pupil">
			<g>
				<circle fill="#3D3D3D" cx="25.8" cy="74.4" r="2.5"/>
			</g>
		</g>
	</g>
	<g>
		<g id="BG_-_circle_39_">
			<g>
				<circle fill="#D2524B" cx="248.8" cy="283.3" r="20"/>
			</g>
		</g>
		<g id="Heart">
			<g>
				<path fill="#FFFFFF" d="M248.3,279c-3.2-6.3-12.9-5.2-12.9,3.1c0,8.8,12.9,13.6,12.9,13.6s12.9-4.1,12.9-13.6
					C261.3,273.8,251.6,272.7,248.3,279z"/>
			</g>
		</g>
		<g id="Shading_49_">
			<defs>
				<path id="SVGID_3_" d="M248.3,279c-3.2-6.3-12.9-5.2-12.9,3.1c0,8.8,12.9,13.6,12.9,13.6s12.9-4.1,12.9-13.6
					C261.3,273.8,251.6,272.7,248.3,279z"/>
			</defs>
			<clipPath id="SVGID_4_">
				<use xlink:href="#SVGID_3_"  overflow="visible"/>
			</clipPath>
			<g id="Shading_6_" opacity="9.019600e-02" clip-path="url(#SVGID_4_)">
				<g>
					<rect x="248.3" y="274.2" fill="#010202" width="14.2" height="22.5"/>
				</g>
			</g>
		</g>
	</g>
</g>
</svg>
