<svg xmlns="http://www.w3.org/2000/svg" xmlns:xlink="http://www.w3.org/1999/xlink" viewBox="0 0 369.8 304.4" enable-background="new 0 0 369.8 304.4"><path fill="none" stroke="#D8D8D7" stroke-miterlimit="3" stroke-dasharray="5" d="M204.5 29L340 152.5M64 266.5L23.3 74.4"/><g fill="none" stroke="#D8D8D7" stroke-miterlimit="3"><path d="M26 73.7l1.8 1.7"/><path stroke-dasharray="4.9516,4.9516" d="M31.4 78.8l215 201.5"/><path d="M248.2 282l1.8 1.7"/></g><path fill="none" stroke="#D8D8D7" stroke-miterlimit="3" stroke-dasharray="5" d="M204.5 29L64 266.5M26 73.7l310.8 80M250 283.7l90-131.2M340 152.5l-276 114M204.5 29L25.8 71.9M251 282L67 265"/><path fill="#242F39" d="M266.6 93c-1.2-1.2-2.8-1.8-4.4-1.8H88c-1.6 0-3.2.6-4.4 1.8-1.2 1.2-1.8 2.8-1.8 4.4V205h186.6V97.3c0-1.5-.6-3.1-1.8-4.3z"/><circle fill="#474F5A" cx="175.1" cy="95.9" r="2.6"/><path fill="#fff" d="M176.1 95.9c0 .6-.5 1-1 1-.6 0-1-.5-1-1 0-.6.5-1 1-1 .6 0 1 .5 1 1z"/><path fill="#363F49" d="M91.5 100.7h167.2v104.4H91.5z"/><circle fill="#666B74" cx="175.1" cy="152.9" r="13.9"/><path fill="#fff" d="M184.3 152.9c0 5.1-4.1 9.2-9.2 9.2s-9.2-4.1-9.2-9.2 4.1-9.2 9.2-9.2 9.2 4.1 9.2 9.2z"/><path fill="#363F49" d="M183.1 152.9c0 4.4-3.6 8-8 8s-8-3.6-8-8 3.6-8 8-8 8 3.6 8 8z"/><path fill="#fff" d="M173.3 149.6l5.6 3.3-5.6 3.2z"/><path fill="#F2F2F2" d="M62 205h226.2v2.8H62z"/><path fill="#CCCBCA" d="M62 207.9c8.2 3.6 17.2 5.6 26.7 5.6h172.8c9.5 0 18.5-2 26.7-5.6H62z"/><path fill="#242F39" d="M155.5 205h39.3v1.4h-39.3z"/><circle fill="#D2524B" cx="339.3" cy="152.5" r="29.2"/><path fill="#fff" d="M339.2 135.5c-9.4 0-17 7.6-17 17 0 5.8 2.9 11 7.4 14l-1 6.6 6.2-4.2c1.4.4 2.9.6 4.5.6 9.4 0 17-7.6 17-17s-7.6-17-17.1-17z"/><path fill="#878890" d="M332 151.3c-1.3 0-2.4 1.1-2.4 2.4 0 1.3 1.1 2.4 2.4 2.4 1.3 0 2.4-1.1 2.4-2.4 0-1.4-1.1-2.4-2.4-2.4zm7.3 0c-1.3 0-2.4 1.1-2.4 2.4 0 1.3 1.1 2.4 2.4 2.4 1.3 0 2.4-1.1 2.4-2.4 0-1.4-1.1-2.4-2.4-2.4zm7.3 0c-1.3 0-2.4 1.1-2.4 2.4 0 1.3 1.1 2.4 2.4 2.4 1.3 0 2.4-1.1 2.4-2.4 0-1.4-1.1-2.4-2.4-2.4z"/><circle fill="#D2524B" cx="65.1" cy="263.6" r="22.3"/><path fill="#363636" d="M77.3 256.5l-.4-3.7-24 2.9.5 3.7 23.9-2.9zM53 275.7h24.2v-15.8H53v15.8z"/><path fill="#D3D3D3" d="M76.3 255.7l-1.1-1.7-3.7.5 1.1 1.7 3.7-.5zm-10.4-.6l1.1 1.7 3.7-.4-1.1-1.7-3.7.4zm-5.5.7l1.1 1.7 3.7-.4-1.1-1.7-3.7.4zm-5.6.6l1.1 1.7 3.7-.4-1.1-1.7-3.7.4zm0 6.2h3.7l.9-1.9h-3.7l-.9 1.9zm5.6 0h3.7l.9-1.9h-3.7l-.9 1.9zm5.6 0h3.7l.9-1.9h-3.7l-.9 1.9zm5.6 0h3.7l.9-1.9h-3.7l-.9 1.9z"/><path fill="#D0D0D0" d="M66 266.4h-6.5v.9H66v-.9zm-6.5 1.8v.9h11.2v-.9H59.5zm0 2.8h10.2v-.9H59.5v.9z"/><circle fill-rule="evenodd" clip-rule="evenodd" fill="#D2524B" cx="204.4" cy="29.1" r="27.6"/><path fill-rule="evenodd" clip-rule="evenodd" fill="#363636" d="M218.3 39.5h-27.8c-.6 0-1.1.5-1.1 1v1.4c0 .6.5 1 1.1 1h27.7c.6 0 1.1-.5 1.1-1v-1.4c.1-.6-.4-1-1-1z"/><path fill-rule="evenodd" clip-rule="evenodd" fill="#4A4A4A" d="M206.1 15s-.2-1-1.5-1-1.6 1-1.6 1l-10 24.4h23L206.1 15z"/><defs><path id="a" d="M206.1 15s-.2-1-1.5-1-1.6 1-1.6 1l-10 24.4h23L206.1 15z"/></defs><clipPath id="b"><use xlink:href="#a" overflow="visible"/></clipPath><path fill-rule="evenodd" clip-rule="evenodd" fill="#fff" d="M210.2 24.5h-11.5l-3.5 8.1h18.4z" clip-path="url(#b)"/><circle fill="#D2524B" cx="25.8" cy="72.6" r="24.2"/><path fill="#F5F5F5" d="M25.8 64.3c-7.6 0-15.1 10.1-15.1 10.1s7.6 10.1 15.1 10.1 15.1-10.1 15.1-10.1-7.5-10.1-15.1-10.1z"/><path fill="#D2524B" d="M25.8 69.3c-2.8 0-5 2.3-5 5 0 2.8 2.3 5 5 5 2.8 0 5-2.3 5-5s-2.2-5-5-5zm0 7.6c-1.4 0-2.5-1.1-2.5-2.5s1.1-2.5 2.5-2.5 2.5 1.1 2.5 2.5-1.1 2.5-2.5 2.5z" opacity=".8"/><circle fill="#3D3D3D" cx="25.8" cy="74.4" r="2.5"/><circle fill="#D2524B" cx="248.8" cy="283.3" r="20"/><path fill="#fff" d="M248.3 279c-3.2-6.3-12.9-5.2-12.9 3.1 0 8.8 12.9 13.6 12.9 13.6s12.9-4.1 12.9-13.6c.1-8.3-9.6-9.4-12.9-3.1z"/><g><defs><path id="c" d="M248.3 279c-3.2-6.3-12.9-5.2-12.9 3.1 0 8.8 12.9 13.6 12.9 13.6s12.9-4.1 12.9-13.6c.1-8.3-9.6-9.4-12.9-3.1z"/></defs><clipPath id="d"><use xlink:href="#c" overflow="visible"/></clipPath><path fill="#010202" d="M248.3 274.2h14.2v22.5h-14.2z" opacity=".09" clip-path="url(#d)"/></g></svg>